<svg width="164" height="164" viewBox="0 0 164 164" fill="none" xmlns="http://www.w3.org/2000/svg">
<path d="M143.982 97.7439C109.571 99.0186 137.401 151.647 77.4174 162.21C17.4343 172.772 -14.7197 134.711 10.853 97.7439C36.4258 60.7763 38.3061 7.05495 84.1867 0.317014C130.067 -6.42092 178.204 96.4691 143.982 97.7439Z" fill="#078080" fill-opacity="0.28"/>
<path d="M110.865 115.673V35.0252L57.3619 58.3394V92.3593L110.865 115.673ZM141.541 97.5756C144.82 100.745 139.834 105.567 136.555 102.398L125.628 91.8285C122.351 88.6593 127.337 83.8372 130.614 87.0064L141.541 97.5756ZM130.614 63.6891C127.337 66.8599 122.351 62.0378 125.628 58.867L136.555 48.2995C139.834 45.1287 144.82 49.9508 141.541 53.1215L130.614 63.6891ZM125.858 78.7591C121.22 78.7591 121.22 71.938 125.858 71.938H141.313C145.335 71.938 147.049 78.7048 141.313 78.7591H125.858ZM44.4275 98.1203H39.4801L46.9053 124.925C47.1428 125.782 47.7606 126.596 48.5614 127.205C49.4617 127.889 50.2432 128.167 51.3729 128.167C52.9263 128.167 52.3888 126.867 52.1368 125.949L44.4275 98.1203ZM50.3106 59.3978H31.7066V91.3008H50.3106V59.3978Z" fill="#F8F5F2"/>
<path d="M110.865 115.673V35.0252L57.3619 58.3394V92.3593L110.865 115.673Z" fill="#F8F5F2"/>
<path d="M50.3106 59.3978H31.7066V91.3008H50.3106V59.3978Z" fill="#F8F5F2"/>
<path d="M44.4275 98.1203H39.4801L46.9053 124.925C47.1428 125.782 47.7606 126.596 48.5614 127.205C49.4617 127.889 50.2432 128.167 51.3729 128.167C52.9263 128.167 52.3888 126.867 52.1368 125.949L44.4275 98.1203Z" fill="#F8F5F2"/>
<path d="M30.1809 48.5768H55.4511L112.865 23.5585V21.364C112.865 16.8787 119.918 16.8787 119.918 21.364C119.918 54.732 119.918 88.1622 119.918 121.504C119.918 125.989 112.865 125.989 112.865 121.504V119.14L55.4527 94.1203H53.7196L61.1448 120.925C62.3179 125.148 60.2349 129.515 55.6742 130.698C49.8954 132.157 43.6096 128.145 42.1011 122.685L34.188 94.1203H30.1809C28.2344 94.1203 26.6537 92.5931 26.6537 90.7106V78.7306C15.0962 78.7306 15.1347 63.968 26.6537 63.968V51.9881C26.6537 50.1055 28.2344 48.5768 30.1809 48.5768ZM112.865 111.673V31.0252L59.3619 54.3394V88.3593L112.865 111.673ZM143.541 93.5755C146.82 96.7447 141.834 101.567 138.555 98.3976L127.628 87.8285C124.351 84.6593 129.337 79.8372 132.614 83.0064L143.541 93.5755ZM132.614 59.6891C129.337 62.8599 124.351 58.0378 127.628 54.867L138.555 44.2995C141.834 41.1287 146.82 45.9508 143.541 49.1215L132.614 59.6891ZM127.858 74.7591C123.22 74.7591 123.22 67.938 127.858 67.938H143.313C147.335 67.938 149.049 74.7047 143.313 74.7591H127.858ZM46.4275 94.1203H41.4801L48.9053 120.925C49.1428 121.782 49.7606 122.596 50.5614 123.205C51.4617 123.889 52.2432 124.167 53.3729 124.167C54.9263 124.167 54.3888 122.866 54.1368 121.949L46.4275 94.1203ZM52.3106 55.3978H33.7066V87.3008H52.3106V55.3978Z" fill="#078080"/>
</svg>
